---
layout: post
title: "示例 Log 文件"

tags: []
comments: false
author: ZexWoo
toc: true
---

```
Exact Audio Copy V1.3 from 2. September 2016

EAC extraction logfile from 4. January 2020, 20:38

徐佳瑩 / 首張創作專輯

Used drive  : ATAPI   CDRW 52X32   Adapter: 1  ID: 0

Read mode               : Secure
Utilize accurate stream : Yes
Defeat audio cache      : Yes
Make use of C2 pointers : No

Read offset correction                      : 738
Overread into Lead-In and Lead-Out          : Yes
Fill up missing offset samples with silence : Yes
Delete leading and trailing silent blocks   : No
Null samples used in CRC calculations       : Yes
Used interface                              : Native Win32 interface for Win NT & 2000
Gap handling                                : Appended to previous track

Used output format              : User Defined Encoder
Selected bitrate                : 896 kBit/s
Quality                         : High
Add ID3 tag                     : No
Command line compressor         : D:\Tools\foobar2000\encoders\flac.exe
Additional command line options : -8 -e -p -V -T "ARTIST=%artist%" -T "TITLE=%title%" -T "ALBUM=%albumtitle%" -T "DATE=%year%" -T "TRACKNUMBER=%tracknr%" -T "GENRE=%genre%" -T "COMMENT=%comment%" -T "BAND=%albuminterpret%" -T "ALBUMARTIST=%albuminterpret%" -T "COMPOSER=%composer%" %haslyrics%--tag-from-file=LYRICS="%lyricsfile%"%haslyrics% -T "DISCNUMBER=%cdnumber%" -T "TOTALDISCS=%totalcds%" -T "TOTALTRACKS=%numtracks%" %hascover%--picture="%coverfile%"%hascover% %source% -o %dest%


TOC of the extracted CD

     Track |   Start  |  Length  | Start sector | End sector 
    ---------------------------------------------------------
        1  |  0:00.00 |  3:42.15 |         0    |    16664   
        2  |  3:42.15 |  4:21.30 |     16665    |    36269   
        3  |  8:03.45 |  3:35.31 |     36270    |    52425   
        4  | 11:39.01 |  4:59.26 |     52426    |    74876   
        5  | 16:38.27 |  3:29.48 |     74877    |    90599   
        6  | 20:08.00 |  5:13.14 |     90600    |   114088   
        7  | 25:21.14 |  4:00.29 |    114089    |   132117   
        8  | 29:21.43 |  4:57.65 |    132118    |   154457   
        9  | 34:19.33 |  3:06.36 |    154458    |   168443   
       10  | 37:25.69 |  3:40.24 |    168444    |   184967   
       11  | 41:06.18 |  3:07.31 |    184968    |   199023   


Track  1

     Filename E:\EAC\徐佳瑩 - 首張創作專輯 (2009) {3870522} [FLAC]\01. 喔伊細.wav

     Pre-gap length  0:00:02.00

     Peak level 100.0 %
     Extraction speed 6.4 X
     Track quality 100.0 %
     Test CRC 702809E3
     Copy CRC 702809E3
     Accurately ripped (confidence 3)  [C415E916]  (AR v2)
     Copy OK

Track  2

     Filename E:\EAC\徐佳瑩 - 首張創作專輯 (2009) {3870522} [FLAC]\02. 圓舞曲.wav

     Peak level 100.0 %
     Extraction speed 7.1 X
     Track quality 100.0 %
     Test CRC DC00BADC
     Copy CRC DC00BADC
     Accurately ripped (confidence 3)  [E463831C]  (AR v2)
     Copy OK

Track  3

     Filename E:\EAC\徐佳瑩 - 首張創作專輯 (2009) {3870522} [FLAC]\03. VIP.wav

     Pre-gap length  0:00:02.00

     Peak level 100.0 %
     Extraction speed 8.9 X
     Track quality 100.0 %
     Test CRC 0021EF1F
     Copy CRC 0021EF1F
     Accurately ripped (confidence 3)  [1C4646F0]  (AR v2)
     Copy OK

Track  4

     Filename E:\EAC\徐佳瑩 - 首張創作專輯 (2009) {3870522} [FLAC]\04. 失落沙洲.wav

     Pre-gap length  0:00:02.00

     Peak level 100.0 %
     Extraction speed 8.0 X
     Track quality 100.0 %
     Test CRC FD64084B
     Copy CRC FD64084B
     Accurately ripped (confidence 3)  [84608750]  (AR v2)
     Copy OK

Track  5

     Filename E:\EAC\徐佳瑩 - 首張創作專輯 (2009) {3870522} [FLAC]\05. 白旗.wav

     Pre-gap length  0:00:02.00

     Peak level 100.0 %
     Extraction speed 9.7 X
     Track quality 100.0 %
     Test CRC C1AA113B
     Copy CRC C1AA113B
     Accurately ripped (confidence 3)  [9CA079EA]  (AR v2)
     Copy OK

Track  6

     Filename E:\EAC\徐佳瑩 - 首張創作專輯 (2009) {3870522} [FLAC]\06. 身騎白馬.wav

     Pre-gap length  0:00:02.00

     Peak level 100.0 %
     Extraction speed 10.4 X
     Track quality 100.0 %
     Test CRC 06130B19
     Copy CRC 06130B19
     Accurately ripped (confidence 3)  [D175E87B]  (AR v2)
     Copy OK

Track  7

     Filename E:\EAC\徐佳瑩 - 首張創作專輯 (2009) {3870522} [FLAC]\07. 一樣的月光.wav

     Pre-gap length  0:00:02.09

     Peak level 100.0 %
     Extraction speed 9.9 X
     Track quality 100.0 %
     Test CRC FCCA51FE
     Copy CRC FCCA51FE
     Accurately ripped (confidence 3)  [E1DCBFC5]  (AR v2)
     Copy OK

Track  8

     Filename E:\EAC\徐佳瑩 - 首張創作專輯 (2009) {3870522} [FLAC]\08. 明知故犯.wav

     Pre-gap length  0:00:03.00

     Peak level 100.0 %
     Extraction speed 10.2 X
     Track quality 100.0 %
     Test CRC C092074F
     Copy CRC C092074F
     Accurately ripped (confidence 3)  [631ADCA1]  (AR v2)
     Copy OK

Track  9

     Filename E:\EAC\徐佳瑩 - 首張創作專輯 (2009) {3870522} [FLAC]\09. 出口.wav

     Pre-gap length  0:00:02.00

     Peak level 100.0 %
     Extraction speed 9.6 X
     Track quality 100.0 %
     Test CRC ACF3A014
     Copy CRC ACF3A014
     Accurately ripped (confidence 3)  [C5E372A0]  (AR v2)
     Copy OK

Track 10

     Filename E:\EAC\徐佳瑩 - 首張創作專輯 (2009) {3870522} [FLAC]\10. 哼情歌.wav

     Pre-gap length  0:00:02.00

     Peak level 100.0 %
     Extraction speed 10.1 X
     Track quality 100.0 %
     Test CRC EC69077F
     Copy CRC EC69077F
     Accurately ripped (confidence 3)  [6537096E]  (AR v2)
     Copy OK

Track 11

     Filename E:\EAC\徐佳瑩 - 首張創作專輯 (2009) {3870522} [FLAC]\11. 沒鎖門.wav

     Pre-gap length  0:00:03.00

     Peak level 100.0 %
     Extraction speed 10.5 X
     Track quality 100.0 %
     Test CRC D56CC6E5
     Copy CRC D56CC6E5
     Accurately ripped (confidence 3)  [22569CBC]  (AR v2)
     Copy OK


All tracks accurately ripped

No errors occurred

End of status report

---- CUETools DB Plugin V2.1.6

[CTDB TOCID: CKFnybL1zb56V56HqtuC_6wh.Cg-] found
Submit result: CKFnybL1zb56V56HqtuC_6wh.Cg- has been confirmed
Track | CTDB Status
  1   | (127/128) Accurately ripped
  2   | (127/128) Accurately ripped
  3   | (127/128) Accurately ripped
  4   | (127/128) Accurately ripped
  5   | (127/128) Accurately ripped
  6   | (127/128) Accurately ripped
  7   | (127/128) Accurately ripped
  8   | (127/128) Accurately ripped
  9   | (126/128) Accurately ripped
 10   | (126/128) Accurately ripped
 11   | (124/128) Accurately ripped


==== Log checksum 4DB714F050495CFA082089EBDE95F9D74A0720C9580AF8D35639A3BFCE55830C ====
```

更多关于 Log 的知识请见 [抓轨日志详解](https://zexwoo.github.io/ripping_log_file/)。